<svg xmlns="http://www.w3.org/2000/svg" style="display: none;">
    <symbol id="delete" viewBox="0 0 40 40">
        <g><path d="M28,40H11.8c-3.3,0-5.9-2.7-5.9-5.9V16c0-0.6,0.4-1,1-1s1,0.4,1,1v18.1c0,2.2,1.8,3.9,3.9,3.9H28c2.2,0,3.9-1.8,3.9-3.9V16   c0-0.6,0.4-1,1-1s1,0.4,1,1v18.1C33.9,37.3,31.2,40,28,40z"/></g>
        <g><path d="M33.3,4.9h-7.6C25.2,2.1,22.8,0,19.9,0s-5.3,2.1-5.8,4.9H6.5c-2.3,0-4.1,1.8-4.1,4.1S4.2,13,6.5,13h26.9   c2.3,0,4.1-1.8,4.1-4.1S35.6,4.9,33.3,4.9z M19.9,2c1.8,0,3.3,1.2,3.7,2.9h-7.5C16.6,3.2,18.1,2,19.9,2z M33.3,11H6.5   c-1.1,0-2.1-0.9-2.1-2.1c0-1.1,0.9-2.1,2.1-2.1h26.9c1.1,0,2.1,0.9,2.1,2.1C35.4,10.1,34.5,11,33.3,11z"/></g>
        <g><path d="M12.9,35.1c-0.6,0-1-0.4-1-1V17.4c0-0.6,0.4-1,1-1s1,0.4,1,1v16.7C13.9,34.6,13.4,35.1,12.9,35.1z"/></g>
        <g><path d="M26.9,35.1c-0.6,0-1-0.4-1-1V17.4c0-0.6,0.4-1,1-1s1,0.4,1,1v16.7C27.9,34.6,27.4,35.1,26.9,35.1z"/></g>
        <g><path d="M19.9,35.1c-0.6,0-1-0.4-1-1V17.4c0-0.6,0.4-1,1-1s1,0.4,1,1v16.7C20.9,34.6,20.4,35.1,19.9,35.1z"/></g>
    </symbol>
    <symbol id="like-active" viewBox="0 0 426.668 426.668">
        <path style="fill:#F05228;" d="M401.788,74.476c-63.492-82.432-188.446-33.792-188.446,49.92
	c0-83.712-124.962-132.356-188.463-49.92c-65.63,85.222-0.943,234.509,188.459,320.265
	C402.731,308.985,467.418,159.698,401.788,74.476z"/>
    </symbol>
    <symbol id="like" viewBox="0 0 426.668 426.668">
        <path style="fill:none;stroke:black;stroke-width:20" d="M401.788,74.476c-63.492-82.432-188.446-33.792-188.446,49.92
	c0-83.712-124.962-132.356-188.463-49.92c-65.63,85.222-0.943,234.509,188.459,320.265
	C402.731,308.985,467.418,159.698,401.788,74.476z"/>
    </symbol>
    <symbol id="complain" viewBox="0 0 24 24">
        <g>
            <path fill="none" d="M0 0h24v24H0z"/>
            <path d="M6.455 19L2 22.5V4a1 1 0 0 1 1-1h18a1 1 0 0 1 1 1v14a1 1 0 0 1-1 1H6.455zM11 13v2h2v-2h-2zm0-6v5h2V7h-2z"/>
        </g>
    </symbol>
    <symbol id="comments" viewBox="0 0 128 128">
        <path  d="M113,0H15A15,15,0,0,0,0,15V79.57a15,15,0,0,0,15,15H38.28a1,1,0,0,1,1,1V121a7,7,0,0,0,11.95,4.95L82.31,94.87a1,1,0,0,1,.71-.29h30a15,15,0,0,0,15-15V15A15,15,0,0,0,113,0Zm9,79.57a9,9,0,0,1-9,9H83a7,7,0,0,0-4.95,2L47,121.7a1,1,0,0,1-1.71-.71V95.57a7,7,0,0,0-7-7H15a9,9,0,0,1-9-9V15a9,9,0,0,1,9-9h98a9,9,0,0,1,9,9Z"/>
    </symbol>
    <symbol id="search" viewBox="0 0 612 612">
        <path d="M382.5,0C255.759,0,153,102.759,153,229.5c0,53.034,18.149,101.707,48.367,140.568L8.415,563.021
				C2.812,568.625,0,575.949,0,583.312c0,7.344,2.812,14.688,8.415,20.292C14,609.208,21.343,612,28.688,612
				s14.688-2.792,20.272-8.396l192.971-192.972C280.793,440.851,329.467,459,382.5,459C509.241,459,612,356.241,612,229.5
				S509.241,0,382.5,0z M382.5,401.625c-94.917,0-172.125-77.208-172.125-172.125c0-94.917,77.208-172.125,172.125-172.125
				c94.917,0,172.125,77.208,172.125,172.125C554.625,324.417,477.417,401.625,382.5,401.625z"/>
    </symbol>
    <symbol id="add-avatar" viewBox="0 0 24 24">
        <path d="M3 4V1h2v3h3v2H5v3H3V6H0V4h3zm3 6V7h3V4h7l1.83 2H21c1.1 0 2 .9 2 2v12c0 1.1-.9 2-2 2H5c-1.1 0-2-.9-2-2V10h3zm7 9c2.76 0 5-2.24 5-5s-2.24-5-5-5-5 2.24-5 5 2.24 5 5 5zm-3.2-5c0 1.77 1.43 3.2 3.2 3.2s3.2-1.43 3.2-3.2-1.43-3.2-3.2-3.2-3.2 1.43-3.2 3.2z"/>
    </symbol>
</svg>